<svg width="40" height="40" viewBox="0 0 40 40" fill="none" xmlns="http://www.w3.org/2000/svg">
<path opacity="0.4" d="M16.7833 4.70003L5.23333 13.95C3.93333 14.9833 3.09999 17.1667 3.38333 18.8L5.6 32.0667C6 34.4333 8.26665 36.35 10.6667 36.35H29.3333C31.7167 36.35 34 34.4167 34.4 32.0667L36.6167 18.8C36.8833 17.1667 36.05 14.9833 34.7667 13.95L23.2166 4.71666C21.4333 3.28333 18.55 3.28336 16.7833 4.70003Z" fill="#6F6F6F"/>
<path d="M20 25.8333C22.3012 25.8333 24.1666 23.9679 24.1666 21.6667C24.1666 19.3655 22.3012 17.5 20 17.5C17.6988 17.5 15.8333 19.3655 15.8333 21.6667C15.8333 23.9679 17.6988 25.8333 20 25.8333Z" fill="#6F6F6F"/>
</svg>
