<svg width="40" height="40" viewBox="0 0 40 40" fill="none" xmlns="http://www.w3.org/2000/svg">
        <path
          opacity="0.4"
          d="M33.1 13.4833C33.1 13.7333 33.1 13.9833 33.0833 14.2167C30.5333 13.2667 27.5333 13.85 25.5333 15.65C24.1833 14.4333 22.4333 13.75 20.5666 13.75C16.4666 13.75 13.1333 17.1 13.1333 21.2333C13.1333 25.95 15.5 29.4 17.7667 31.6333C17.5833 31.6167 17.4333 31.5833 17.3 31.5333C12.9833 30.05 3.33331 23.9167 3.33331 13.4833C3.33331 8.88332 7.0333 5.16667 11.6 5.16667C14.3166 5.16667 16.7166 6.46666 18.2166 8.48332C19.7333 6.46666 22.1333 5.16667 24.8333 5.16667C29.4 5.16667 33.1 8.88332 33.1 13.4833Z"
          fill='gray'
        />
        <path
          d="M30 15.9833C28.2167 15.9833 26.6 16.85 25.6 18.1833C24.6 16.85 23 15.9833 21.2 15.9833C18.1667 15.9833 15.7 18.45 15.7 21.5167C15.7 22.7 15.8833 23.7833 16.2167 24.7833C17.7833 29.7333 22.6 32.6833 24.9833 33.5C25.3166 33.6167 25.8667 33.6167 26.2167 33.5C28.6 32.6833 33.4166 29.7333 34.9833 24.7833C35.3166 23.7667 35.5 22.6833 35.5 21.5167C35.5 18.45 33.0333 15.9833 30 15.9833Z"
          fill='gray'
        />
      </svg>