<svg width="40" height="40" viewBox="0 0 40 40" fill="none" xmlns="http://www.w3.org/2000/svg">
<path d="M32.5 13.3333C34.8012 13.3333 36.6666 11.4679 36.6666 9.16667C36.6666 6.86548 34.8012 5 32.5 5C30.1988 5 28.3333 6.86548 28.3333 9.16667C28.3333 11.4679 30.1988 13.3333 32.5 13.3333Z" fill="#6F6F6F"/>
<path d="M32.5 13.3333C34.8012 13.3333 36.6666 11.4679 36.6666 9.16667C36.6666 6.86548 34.8012 5 32.5 5C30.1988 5 28.3333 6.86548 28.3333 9.16667C28.3333 11.4679 30.1988 13.3333 32.5 13.3333Z" fill="#6F6F6F"/>
<path opacity="0.4" d="M34.5333 15.5167C35.5833 15.1833 36.6666 16 36.6666 17.1167V25.85C36.6666 31.6833 33.3333 34.1833 28.3333 34.1833H11.6666C6.66665 34.1833 3.33331 31.6833 3.33331 25.85V14.1833C3.33331 8.34999 6.66665 5.84999 11.6666 5.84999H24.35C25.4333 5.84999 26.1666 6.85001 25.9666 7.90001C25.7666 8.88334 25.8 9.93333 26.1 11.0167C26.7167 13.25 28.5333 15.0333 30.7666 15.6167C32.0833 15.95 33.3666 15.8833 34.5333 15.5167Z" fill="#6F6F6F"/>
<path d="M20 21.45C18.6 21.45 17.1833 21.0167 16.1 20.1333L10.8833 15.9667C10.35 15.5333 10.25 14.75 10.6833 14.2167C11.1166 13.6833 11.8999 13.5834 12.4333 14.0167L17.6499 18.1834C18.9166 19.2 21.0666 19.2 22.3333 18.1834L24.2999 16.6167C24.8333 16.1833 25.6333 16.2667 26.05 16.8167C26.4833 17.35 26.4 18.15 25.85 18.5667L23.8833 20.1333C22.8166 21.0167 21.4 21.45 20 21.45Z" fill="#6F6F6F"/>
</svg>
