<svg width="40" height="40" viewBox="0 0 40 40" fill="none" xmlns="http://www.w3.org/2000/svg">
<path opacity="0.4" d="M18.35 33.3667C26.6435 33.3667 33.3666 26.6435 33.3666 18.35C33.3666 10.0565 26.6435 3.33334 18.35 3.33334C10.0565 3.33334 3.33331 10.0565 3.33331 18.35C3.33331 26.6435 10.0565 33.3667 18.35 33.3667Z" fill="#6F6F6F"/>
<path d="M23.75 18.3333C23.75 19.0167 23.1834 19.5833 22.5 19.5833H19.5834V22.5C19.5834 23.1833 19.0167 23.75 18.3334 23.75C17.65 23.75 17.0834 23.1833 17.0834 22.5V19.5833H14.1667C13.4834 19.5833 12.9167 19.0167 12.9167 18.3333C12.9167 17.65 13.4834 17.0833 14.1667 17.0833H17.0834V14.1667C17.0834 13.4833 17.65 12.9167 18.3334 12.9167C19.0167 12.9167 19.5834 13.4833 19.5834 14.1667V17.0833H22.5C23.1834 17.0833 23.75 17.65 23.75 18.3333Z" fill="#6F6F6F"/>
<path d="M36.6501 31.5833C36.1001 30.5667 34.9334 30 33.3668 30C32.1834 30 31.1668 30.4833 30.5668 31.3167C29.9668 32.15 29.8334 33.2667 30.2001 34.3833C30.9168 36.55 32.1668 37.0333 32.8501 37.1167C32.9501 37.1333 33.0501 37.1333 33.1668 37.1333C33.9001 37.1333 35.0334 36.8167 36.1334 35.1667C37.0168 33.8833 37.1834 32.6 36.6501 31.5833Z" fill="#6F6F6F"/>
</svg>
